Coordinates
version=1
nRows=9
nColumns=36
inDegrees=yes

Units are S.I. units (second, meters, Newtons, ...)
If the header above contains a line with 'inDegrees', this indicates whether rotational values are in degrees (yes) or radians (no).

endheader
time	pelvis_tilt	pelvis_list	pelvis_rotation	pelvis_tx	pelvis_ty	pelvis_tz	hip_flexion_r	hip_adduction_r	hip_rotation_r	knee_angle_r	knee_angle_r_beta	ankle_angle_r	subtalar_angle_r	mtp_angle_r	hip_flexion_l	hip_adduction_l	hip_rotation_l	knee_angle_l	knee_angle_l_beta	ankle_angle_l	subtalar_angle_l	mtp_angle_l	lumbar_extension	lumbar_bending	lumbar_rotation	arm_flex_r	arm_add_r	arm_rot_r	elbow_flex_r	pro_sup_r	arm_flex_l	arm_add_l	arm_rot_l	elbow_flex_l	pro_sup_l
      1.34000000	    -27.08306475	     -1.84352110	     -0.86042469	     -0.32211288	      0.78431346	     -0.61227038	     80.03517204	     -5.16004521	     -4.32635825	     82.91281484	      1.44710161	     25.57514975	     -9.67541342	     -7.32656095	     81.96716897	     -9.69516090	     -3.91769093	     82.25035030	      1.43553942	     25.57936892	     -0.37410098	     -7.32656095	    -34.01496365	      2.54999572	      1.25889939	    -17.30247194	     -9.41604453	      5.72464021	     45.69491189	    110.07203300	     -7.81575649	    -13.08100273	      3.17656129	     52.14942684	    112.24916476
      1.35000000	    -27.74462807	     -1.77903185	     -1.51249777	     -0.32009172	      0.77535418	     -0.61155385	     81.53292912	     -4.90677568	     -4.48877649	     84.40031620	      1.47306341	     26.34968295	     -9.28433052	     -7.33301478	     83.49686279	    -10.47552261	     -3.89939934	     84.04765379	      1.46690829	     26.47961526	      0.19349029	     -7.33301478	    -35.43188145	      2.13803498	      1.90271557	    -13.61379494	    -10.31971614	      6.28964748	     46.88783244	    109.90288927	     -3.33107007	    -14.29483888	      4.54974573	     52.41986444	    112.28546438
      1.36000000	    -28.34276604	     -1.70465513	     -2.25508598	     -0.31784203	      0.76750668	     -0.61057136	     82.79023306	     -4.49522229	     -4.54078891	     85.59272561	      1.49387488	     26.98394024	     -8.98444684	     -7.33620735	     84.82917138	    -11.41861490	     -3.88786598	     85.65798221	      1.49501382	     27.12065792	      0.54843395	     -7.33620735	    -36.84195819	      1.62823410	      2.47406008	     -9.87862987	    -11.14345990	      6.62695796	     48.05444192	    109.78947185	      0.84927540	    -15.48714148	      5.07298503	     53.34645251	    112.15831150
      1.37000000	    -29.11485450	     -1.62897342	     -2.54525273	     -0.31604566	      0.76008465	     -0.61105718	     84.15941608	     -4.74631044	     -4.73624185	     86.71013541	      1.51337736	     27.87148033	     -8.02850417	     -7.34212447	     86.30476652	    -11.69314917	     -3.70190247	     86.97444097	      1.51799036	     27.56366741	      1.03641885	     -7.34212447	    -37.89127065	      1.42386662	      2.88547571	     -6.36128288	    -12.03826368	      6.68066416	     49.30416095	    109.62597383	      5.26090013	    -16.68066652	      5.96867302	     53.98561235	    111.75313721
      1.38000000	    -29.93546502	     -1.53098148	     -2.58439372	     -0.31476224	      0.75346016	     -0.61230799	     85.54436419	     -5.27046422	     -4.90441280	     87.66830467	      1.53010057	     28.00835375	     -7.96068704	     -7.34255156	     87.78054530	    -11.55768352	     -3.49267220	     88.05875335	      1.53691518	     27.62828728	      0.99166538	     -7.34255156	    -38.81048878	      1.36160392	      2.75224459	     -2.60662296	    -12.75583326	      6.37209624	     50.38045181	    109.65661091	      9.36793845	    -17.59098822	      5.59501627	     54.91749039	    111.74539466
      1.39000000	    -30.78607024	     -1.39703298	     -2.58610170	     -0.31355788	      0.74770403	     -0.61352037	     86.93898731	     -5.93356296	     -5.09156533	     88.62809244	      1.54685202	     28.75991472	     -6.50864439	     -7.34642660	     89.20473621	    -11.37300022	     -3.33498868	     88.95781905	      1.55260684	     27.31162434	      0.81310423	     -7.34642660	    -39.49631586	      1.30865212	      2.84902021	      0.92723056	    -13.87114127	      6.82573129	     51.61576136	    109.66443671	     14.15763974	    -18.81785520	      7.52408673	     54.79464650	    111.44949421
      1.40000000	    -31.48256876	     -1.30123776	     -2.78690994	     -0.31225023	      0.74316229	     -0.61396296	     88.14944367	     -6.32631727	     -5.39483443	     89.44509409	      1.56111139	     28.64243484	     -6.30323737	     -7.34695083	     90.36999337	    -11.45351993	     -3.14890676	     89.81274274	      1.56752807	     27.29825464	      0.83617968	     -7.34695083	    -40.32802569	      1.13660596	      2.66910976	      4.77593065	    -14.39231662	      6.49264820	     52.51751066	    109.67877214	     18.34371536	    -19.70275499	      7.24305205	     55.29962501	    111.40560668
      1.41000000	    -31.94132814	     -1.12991426	     -3.18709857	     -0.31055504	      0.74030005	     -0.61338720	     89.10878622	     -6.49597202	     -5.64909580	     90.20246133	      1.57432994	     28.19762962	     -5.54884838	     -7.35631874	     91.10859026	    -11.93217423	     -3.20819993	     90.49170419	      1.57937818	     27.09669614	      1.05229737	     -7.35631874	    -41.16325309	      0.68614871	      3.54356603	      7.98237237	    -15.10581895	      5.73785246	     53.40075710	    109.56460815	     24.29476623	    -20.63947039	     10.48749355	     53.29756947	    110.68239009
      1.42000000	    -31.95691568	     -1.06120018	     -4.64137616	     -0.30748733	      0.73959796	     -0.60903021	     89.42448648	     -5.18677307	     -5.99452652	     90.64322871	      1.58202279	     27.56937526	     -5.37050501	     -7.35706763	     91.22161016	    -13.97350585	     -3.28081412	     91.30388211	      1.59355336	     26.99875887	      1.25916924	     -7.35706763	    -42.53756686	     -0.50594111	      4.03920060	     12.07658507	    -15.01327486	      5.47316793	     53.83254389	    109.57804701	     28.58638740	    -21.73546945	      9.92066503	     53.11294061	    110.56192142
